# xmcd CD database file
#
# Track frame offsets:
#	150
#	15787
#	33379
#	47417
#	67880
#	92231
#	112620
#	130967
#	149185
#	170570
#	185944
#	213631
#	230235
#	248626
#	264601
#
# Disc length: 3792 seconds
#
# Revision: 2
# Processed by: cddbd v1.5.2PL0 Copyright (c) Steve Scherf et al.
# Submitted via: CDex 1.51
#
DISCID=d80ece0f
DTITLE=Miles Davis - +3
DYEAR=2005
DGENRE=Jazz
TTITLE0=When Lights Are Low
TTITLE1=Tune Up
TTITLE2=Smooch
TTITLE3=The Leap
TTITLE4=Well You Needn't
TTITLE5=Miles Ahead
TTITLE6=It Never Entered My Mind
TTITLE7=Four
TTITLE8=Weirdo
TTITLE9=Old Devil Moon
TTITLE10=Blue Haze
TTITLE11=Take Off
TTITLE12=Lazy Suzan
TTITLE13=I Waited for You
TTITLE14=You Don't Know What Love Is
EXTD=YEAR: 2005
EXTT0=
EXTT1=
EXTT2=
EXTT3=
EXTT4=
EXTT5=
EXTT6=
EXTT7=
EXTT8=
EXTT9=
EXTT10=
EXTT11=
EXTT12=
EXTT13=
EXTT14=
PLAYORDER=
